<svg width="350" height="350" viewBox="0 0 390 390" fill="none" xmlns="http://www.w3.org/2000/svg">
<path d="M51.0352 36.5625L338.965 353.438" stroke="black" stroke-width="2" stroke-linecap="round" stroke-linejoin="round"/>
<path d="M143.203 65.5078L146.25 60.9375H243.75L268.125 97.5H316.875C323.34 97.5 329.54 100.068 334.111 104.639C338.682 109.21 341.25 115.41 341.25 121.875V283.359" stroke="black" stroke-width="2" stroke-linecap="round" stroke-linejoin="round"/>
<path d="M305.754 316.875H73.125C66.6603 316.875 60.4605 314.307 55.8893 309.736C51.3181 305.165 48.75 298.965 48.75 292.5V121.875C48.75 115.41 51.3181 109.21 55.8893 104.639C60.4605 100.068 66.6603 97.5 73.125 97.5H106.336" stroke="black" stroke-width="2" stroke-linecap="round" stroke-linejoin="round"/>
<path d="M234.762 238.875C229.543 244.255 223.277 248.509 216.351 251.373C209.424 254.237 201.984 255.651 194.49 255.527C186.996 255.403 179.606 253.745 172.778 250.654C165.95 247.563 159.827 243.105 154.789 237.556C149.751 232.007 145.903 225.484 143.485 218.389C141.066 211.295 140.127 203.78 140.726 196.309C141.325 188.837 143.449 181.568 146.967 174.95C150.485 168.331 155.322 162.504 161.18 157.828" stroke="black" stroke-width="2" stroke-linecap="round" stroke-linejoin="round"/>
</svg>
